# xmcd
#
# Track frame offsets:
#	150
#	20420
#	31121
#	40540
#	53344
#	66187
#	79839
#	101172
#	113623
#	125111
#	138038
#	154059
#
# Disc length: 2165 seconds
#
# Revision: 0
# Processed by: cddbd v1.5.2PL0 Copyright (c) Steve Scherf et al.
# Submitted via: EZCDAudioConverter 3.0.7.1
#
DISCID=8d08730c
DTITLE=Tuomari Nurmio and Hoedown - Tales Of Judge Bone
DYEAR=2015
DGENRE=
TTITLE0=Fare Thee Well
TTITLE1=Bonnie George Campbell
TTITLE2=You Hate Me and My Stetson Hat
TTITLE3=Pinemoor Cemetery
TTITLE4=15.000 Heads
TTITLE5=Buffalo’s Bone
TTITLE6=Love in Laredo
TTITLE7=In Shackles and Chains
TTITLE8=Beneath the Darkest Mountain
TTITLE9=Soultripper
TTITLE10=Train-Train-Train!
TTITLE11=Fiddlin’ Bill
EXTD=
EXTT0=
EXTT1=
EXTT2=
EXTT3=
EXTT4=
EXTT5=
EXTT6=
EXTT7=
EXTT8=
EXTT9=
EXTT10=
EXTT11=
PLAYORDER=
